<?xml version="1.0" standalone="no"?>
<!DOCTYPE svg PUBLIC "-//W3C//DTD SVG 20010904//EN"
 "http://www.w3.org/TR/2001/REC-SVG-20010904/DTD/svg10.dtd">
<svg version="1.0" xmlns="http://www.w3.org/2000/svg"
 width="30px" height="30px" viewBox="0 0 96.000000 96.000000"
 preserveAspectRatio="xMidYMid meet">

<g transform="translate(0.000000,96.000000) scale(0.100000,-0.100000)"
fill="#000000" stroke="none">
<path d="M590 831 c-17 -16 -30 -39 -30 -50 0 -20 -5 -21 -237 -23 l-238 -3 0
-25 0 -25 238 -3 c232 -2 237 -3 237 -23 0 -11 13 -34 29 -50 40 -39 82 -39
122 1 28 28 30 34 27 97 -3 65 -4 68 -28 68 -24 0 -25 -4 -30 -65 -5 -61 -6
-65 -30 -65 -24 0 -25 2 -25 65 0 60 2 64 25 70 18 4 25 13 25 30 0 39 -47 40
-85 1z"/>
<path d="M770 745 c-22 -26 5 -46 59 -43 42 3 46 5 46 28 0 23 -4 25 -46 28
-32 2 -50 -2 -59 -13z"/>
<path d="M249 581 c-16 -16 -29 -39 -29 -50 0 -18 -7 -20 -67 -23 -65 -3 -68
-4 -68 -28 0 -24 3 -25 68 -28 60 -3 67 -5 67 -23 0 -32 53 -79 90 -79 22 0
41 9 61 29 27 27 29 35 29 101 0 66 -2 74 -29 101 -20 20 -39 29 -61 29 -22 0
-41 -9 -61 -29z m86 -101 c0 -63 -1 -65 -25 -65 -23 0 -25 4 -28 54 -4 68 2
83 30 79 21 -3 23 -8 23 -68z"/>
<path d="M444 495 c-4 -8 -4 -22 0 -30 5 -13 35 -15 218 -13 l213 3 0 25 0 25
-213 3 c-183 2 -213 0 -218 -13z"/>
<path d="M549 331 c-16 -16 -29 -39 -29 -50 0 -20 -6 -21 -217 -23 l-218 -3 0
-25 0 -25 216 -3 c209 -2 217 -3 222 -23 4 -15 12 -20 29 -17 21 3 23 9 28 68
5 61 6 65 30 65 24 0 25 -3 25 -60 0 -56 -2 -61 -28 -73 -38 -18 -34 -56 6
-60 20 -2 35 5 57 27 28 27 30 35 30 101 0 66 -2 74 -29 101 -20 20 -39 29
-61 29 -22 0 -41 -9 -61 -29z"/>
<path d="M730 245 c-10 -12 -10 -18 0 -30 10 -12 29 -15 79 -13 63 3 66 4 66
28 0 24 -3 25 -66 28 -50 2 -69 -1 -79 -13z"/>
</g>
</svg>
